# xmcd
#
# Track frame offsets:
#	150
#	17959
#	36150
#	59641
#	75422
#	97635
#	109155
#	122700
#	146008
#	173975
#	201150
#	213052
#	227812
#
# Disc length: 3335 seconds
#
# Revision: 0
# Processed by: cddbd v1.5.1PL2 Copyright (c) Steve Scherf et al.
# Submitted via: dBpowerAMP V4.0
#
DISCID=ad0d050d
DTITLE=Berti Barbera and Nicu Patoi - Confident Stories - Live in Timisoara 14.nov.2004
DYEAR=2004
DGENRE=Blues
TTITLE0=An American In Paris
TTITLE1=Drive It Home
TTITLE2=Georgy Porgy
TTITLE3=Light My Fire
TTITLE4=Ain't No Sunshine
TTITLE5=April In Paris
TTITLE6=Soul Of The Crystal
TTITLE7=Violent Love
TTITLE8=You've Got A Friend
TTITLE9=Every Breath You Take
TTITLE10=Signe
TTITLE11=Something
TTITLE12=Tears In Heaven
EXTD=concert live in timisoara
EXTT0=
EXTT1=
EXTT2=
EXTT3=
EXTT4=
EXTT5=
EXTT6=
EXTT7=
EXTT8=
EXTT9=
EXTT10=
EXTT11=
EXTT12=
PLAYORDER=
